<svg xmlns="http://www.w3.org/2000/svg" width="960" height="330" viewBox="0 0 960 330" role="img" style="font-family:'Microsoft YaHei','PingFang SC','Noto Sans CJK SC','Segoe UI',sans-serif;font-variant-numeric:tabular-nums"><title>liaojingwu20041031 的 GitHub 工程数据</title><desc>公开仓库、项目获星、关注者、年度贡献和主要开发语言分布。</desc><defs><linearGradient id="accent" x1="0" x2="1"><stop stop-color="#2563eb"/><stop offset="1" stop-color="#2da44e"/></linearGradient></defs><rect x="0.5" y="0.5" width="959" height="329" rx="18" fill="#fbfdff" stroke="#cfe3f6"/><rect x="24" y="22" width="6" height="36" rx="3" fill="url(#accent)"/><text x="46" y="39" fill="#2563eb" font-size="12" font-weight="700">GITHUB / 工程数据</text><text x="46" y="58" fill="#64748b" font-size="12" font-weight="400">@liaojingwu20041031 · 更新于 2026-07-24 UTC</text><text x="46" y="104" fill="#172033" font-size="30" font-weight="700">284</text><text x="46" y="124" fill="#64748b" font-size="11" font-weight="600">年度贡献</text><text x="250" y="104" fill="#172033" font-size="30" font-weight="700">12</text><text x="250" y="124" fill="#64748b" font-size="11" font-weight="600">公开仓库</text><text x="454" y="104" fill="#172033" font-size="30" font-weight="700">35</text><text x="454" y="124" fill="#64748b" font-size="11" font-weight="600">项目获星</text><text x="658" y="104" fill="#172033" font-size="30" font-weight="700">7</text><text x="658" y="124" fill="#64748b" font-size="11" font-weight="600">关注者</text><line x1="46" y1="146" x2="914" y2="146" stroke="#cfe3f6"/><text x="46" y="171" fill="#64748b" font-size="10" font-weight="600">52 周贡献节奏</text><rect x="46" y="191" width="9" height="9" rx="2" fill="#edf4fb"><title>2025-07-27: 0 contributions</title></rect><rect x="46" y="203" width="9" height="9" rx="2" fill="#edf4fb"><title>2025-07-28: 0 contributions</title></rect><rect x="46" y="215" width="9" height="9" rx="2" fill="#edf4fb"><title>2025-07-29: 0 contributions</title></rect><rect x="46" y="227" width="9" height="9" rx="2" fill="#edf4fb"><title>2025-07-30: 0 contributions</title></rect><rect x="46" y="239" width="9" height="9" rx="2" fill="#edf4fb"><title>2025-07-31: 0 contributions</title></rect><rect x="46" y="251" width="9" height="9" rx="2" fill="#edf4fb"><title>2025-08-01: 0 contributions</title></rect><rect x="46" y="263" width="9" height="9" rx="2" fill="#edf4fb"><title>2025-08-02: 0 contributions</title></rect><rect x="58" y="191" width="9" height="9" rx="2" fill="#edf4fb"><title>2025-08-03: 0 contributions</title></rect><rect x="58" y="203" width="9" height="9" rx="2" fill="#edf4fb"><title>2025-08-04: 0 contributions</title></rect><rect x="58" y="215" width="9" height="9" rx="2" fill="#edf4fb"><title>2025-08-05: 0 contributions</title></rect><rect x="58" y="227" width="9" height="9" rx="2" fill="#edf4fb"><title>2025-08-06: 0 contributions</title></rect><rect x="58" y="239" width="9" height="9" rx="2" fill="#edf4fb"><title>2025-08-07: 0 contributions</title></rect><rect x="58" y="251" width="9" height="9" rx="2" fill="#edf4fb"><title>2025-08-08: 0 contributions</title></rect><rect x="58" y="263" width="9" height="9" rx="2" fill="#edf4fb"><title>2025-08-09: 0 contributions</title></rect><rect x="70" y="191" width="9" height="9" rx="2" fill="#edf4fb"><title>2025-08-10: 0 contributions</title></rect><rect x="70" y="203" width="9" height="9" rx="2" fill="#edf4fb"><title>2025-08-11: 0 contributions</title></rect><rect x="70" y="215" width="9" height="9" rx="2" fill="#edf4fb"><title>2025-08-12: 0 contributions</title></rect><rect x="70" y="227" width="9" height="9" rx="2" fill="#edf4fb"><title>2025-08-13: 0 contributions</title></rect><rect x="70" y="239" width="9" height="9" rx="2" fill="#edf4fb"><title>2025-08-14: 0 contributions</title></rect><rect x="70" y="251" width="9" height="9" rx="2" fill="#edf4fb"><title>2025-08-15: 0 contributions</title></rect><rect x="70" y="263" width="9" height="9" rx="2" fill="#edf4fb"><title>2025-08-16: 0 contributions</title></rect><rect x="82" y="191" width="9" height="9" rx="2" fill="#edf4fb"><title>2025-08-17: 0 contributions</title></rect><rect x="82" y="203" width="9" height="9" rx="2" fill="#edf4fb"><title>2025-08-18: 0 contributions</title></rect><rect x="82" y="215" width="9" height="9" rx="2" fill="#edf4fb"><title>2025-08-19: 0 contributions</title></rect><rect x="82" y="227" width="9" height="9" rx="2" fill="#edf4fb"><title>2025-08-20: 0 contributions</title></rect><rect x="82" y="239" width="9" height="9" rx="2" fill="#edf4fb"><title>2025-08-21: 0 contributions</title></rect><rect x="82" y="251" width="9" height="9" rx="2" fill="#edf4fb"><title>2025-08-22: 0 contributions</title></rect><rect x="82" y="263" width="9" height="9" rx="2" fill="#edf4fb"><title>2025-08-23: 0 contributions</title></rect><rect x="94" y="191" width="9" height="9" rx="2" fill="#edf4fb"><title>2025-08-24: 0 contributions</title></rect><rect x="94" y="203" width="9" height="9" rx="2" fill="#edf4fb"><title>2025-08-25: 0 contributions</title></rect><rect x="94" y="215" width="9" height="9" rx="2" fill="#edf4fb"><title>2025-08-26: 0 contributions</title></rect><rect x="94" y="227" width="9" height="9" rx="2" fill="#edf4fb"><title>2025-08-27: 0 contributions</title></rect><rect x="94" y="239" width="9" height="9" rx="2" fill="#edf4fb"><title>2025-08-28: 0 contributions</title></rect><rect x="94" y="251" width="9" height="9" rx="2" fill="#edf4fb"><title>2025-08-29: 0 contributions</title></rect><rect x="94" y="263" width="9" height="9" rx="2" fill="#edf4fb"><title>2025-08-30: 0 contributions</title></rect><rect x="106" y="191" width="9" height="9" rx="2" fill="#edf4fb"><title>2025-08-31: 0 contributions</title></rect><rect x="106" y="203" width="9" height="9" rx="2" fill="#edf4fb"><title>2025-09-01: 0 contributions</title></rect><rect x="106" y="215" width="9" height="9" rx="2" fill="#edf4fb"><title>2025-09-02: 0 contributions</title></rect><rect x="106" y="227" width="9" height="9" rx="2" fill="#edf4fb"><title>2025-09-03: 0 contributions</title></rect><rect x="106" y="239" width="9" height="9" rx="2" fill="#edf4fb"><title>2025-09-04: 0 contributions</title></rect><rect x="106" y="251" width="9" height="9" rx="2" fill="#edf4fb"><title>2025-09-05: 0 contributions</title></rect><rect x="106" y="263" width="9" height="9" rx="2" fill="#edf4fb"><title>2025-09-06: 0 contributions</title></rect><rect x="118" y="191" width="9" height="9" rx="2" fill="#edf4fb"><title>2025-09-07: 0 contributions</title></rect><rect x="118" y="203" width="9" height="9" rx="2" fill="#edf4fb"><title>2025-09-08: 0 contributions</title></rect><rect x="118" y="215" width="9" height="9" rx="2" fill="#edf4fb"><title>2025-09-09: 0 contributions</title></rect><rect x="118" y="227" width="9" height="9" rx="2" fill="#edf4fb"><title>2025-09-10: 0 contributions</title></rect><rect x="118" y="239" width="9" height="9" rx="2" fill="#edf4fb"><title>2025-09-11: 0 contributions</title></rect><rect x="118" y="251" width="9" height="9" rx="2" fill="#edf4fb"><title>2025-09-12: 0 contributions</title></rect><rect x="118" y="263" width="9" height="9" rx="2" fill="#edf4fb"><title>2025-09-13: 0 contributions</title></rect><rect x="130" y="191" width="9" height="9" rx="2" fill="#edf4fb"><title>2025-09-14: 0 contributions</title></rect><rect x="130" y="203" width="9" height="9" rx="2" fill="#edf4fb"><title>2025-09-15: 0 contributions</title></rect><rect x="130" y="215" width="9" height="9" rx="2" fill="#edf4fb"><title>2025-09-16: 0 contributions</title></rect><rect x="130" y="227" width="9" height="9" rx="2" fill="#edf4fb"><title>2025-09-17: 0 contributions</title></rect><rect x="130" y="239" width="9" height="9" rx="2" fill="#edf4fb"><title>2025-09-18: 0 contributions</title></rect><rect x="130" y="251" width="9" height="9" rx="2" fill="#edf4fb"><title>2025-09-19: 0 contributions</title></rect><rect x="130" y="263" width="9" height="9" rx="2" fill="#edf4fb"><title>2025-09-20: 0 contributions</title></rect><rect x="142" y="191" width="9" height="9" rx="2" fill="#edf4fb"><title>2025-09-21: 0 contributions</title></rect><rect x="142" y="203" width="9" height="9" rx="2" fill="#edf4fb"><title>2025-09-22: 0 contributions</title></rect><rect x="142" y="215" width="9" height="9" rx="2" fill="#edf4fb"><title>2025-09-23: 0 contributions</title></rect><rect x="142" y="227" width="9" height="9" rx="2" fill="#edf4fb"><title>2025-09-24: 0 contributions</title></rect><rect x="142" y="239" width="9" height="9" rx="2" fill="#edf4fb"><title>2025-09-25: 0 contributions</title></rect><rect x="142" y="251" width="9" height="9" rx="2" fill="#edf4fb"><title>2025-09-26: 0 contributions</title></rect><rect x="142" y="263" width="9" height="9" rx="2" fill="#edf4fb"><title>2025-09-27: 0 contributions</title></rect><rect x="154" y="191" width="9" height="9" rx="2" fill="#edf4fb"><title>2025-09-28: 0 contributions</title></rect><rect x="154" y="203" width="9" height="9" rx="2" fill="#edf4fb"><title>2025-09-29: 0 contributions</title></rect><rect x="154" y="215" width="9" height="9" rx="2" fill="#edf4fb"><title>2025-09-30: 0 contributions</title></rect><rect x="154" y="227" width="9" height="9" rx="2" fill="#edf4fb"><title>2025-10-01: 0 contributions</title></rect><rect x="154" y="239" width="9" height="9" rx="2" fill="#edf4fb"><title>2025-10-02: 0 contributions</title></rect><rect x="154" y="251" width="9" height="9" rx="2" fill="#edf4fb"><title>2025-10-03: 0 contributions</title></rect><rect x="154" y="263" width="9" height="9" rx="2" fill="#edf4fb"><title>2025-10-04: 0 contributions</title></rect><rect x="166" y="191" width="9" height="9" rx="2" fill="#edf4fb"><title>2025-10-05: 0 contributions</title></rect><rect x="166" y="203" width="9" height="9" rx="2" fill="#edf4fb"><title>2025-10-06: 0 contributions</title></rect><rect x="166" y="215" width="9" height="9" rx="2" fill="#edf4fb"><title>2025-10-07: 0 contributions</title></rect><rect x="166" y="227" width="9" height="9" rx="2" fill="#edf4fb"><title>2025-10-08: 0 contributions</title></rect><rect x="166" y="239" width="9" height="9" rx="2" fill="#edf4fb"><title>2025-10-09: 0 contributions</title></rect><rect x="166" y="251" width="9" height="9" rx="2" fill="#edf4fb"><title>2025-10-10: 0 contributions</title></rect><rect x="166" y="263" width="9" height="9" rx="2" fill="#edf4fb"><title>2025-10-11: 0 contributions</title></rect><rect x="178" y="191" width="9" height="9" rx="2" fill="#edf4fb"><title>2025-10-12: 0 contributions</title></rect><rect x="178" y="203" width="9" height="9" rx="2" fill="#edf4fb"><title>2025-10-13: 0 contributions</title></rect><rect x="178" y="215" width="9" height="9" rx="2" fill="#edf4fb"><title>2025-10-14: 0 contributions</title></rect><rect x="178" y="227" width="9" height="9" rx="2" fill="#edf4fb"><title>2025-10-15: 0 contributions</title></rect><rect x="178" y="239" width="9" height="9" rx="2" fill="#edf4fb"><title>2025-10-16: 0 contributions</title></rect><rect x="178" y="251" width="9" height="9" rx="2" fill="#edf4fb"><title>2025-10-17: 0 contributions</title></rect><rect x="178" y="263" width="9" height="9" rx="2" fill="#edf4fb"><title>2025-10-18: 0 contributions</title></rect><rect x="190" y="191" width="9" height="9" rx="2" fill="#edf4fb"><title>2025-10-19: 0 contributions</title></rect><rect x="190" y="203" width="9" height="9" rx="2" fill="#edf4fb"><title>2025-10-20: 0 contributions</title></rect><rect x="190" y="215" width="9" height="9" rx="2" fill="#edf4fb"><title>2025-10-21: 0 contributions</title></rect><rect x="190" y="227" width="9" height="9" rx="2" fill="#edf4fb"><title>2025-10-22: 0 contributions</title></rect><rect x="190" y="239" width="9" height="9" rx="2" fill="#edf4fb"><title>2025-10-23: 0 contributions</title></rect><rect x="190" y="251" width="9" height="9" rx="2" fill="#edf4fb"><title>2025-10-24: 0 contributions</title></rect><rect x="190" y="263" width="9" height="9" rx="2" fill="#edf4fb"><title>2025-10-25: 0 contributions</title></rect><rect x="202" y="191" width="9" height="9" rx="2" fill="#edf4fb"><title>2025-10-26: 0 contributions</title></rect><rect x="202" y="203" width="9" height="9" rx="2" fill="#edf4fb"><title>2025-10-27: 0 contributions</title></rect><rect x="202" y="215" width="9" height="9" rx="2" fill="#edf4fb"><title>2025-10-28: 0 contributions</title></rect><rect x="202" y="227" width="9" height="9" rx="2" fill="#edf4fb"><title>2025-10-29: 0 contributions</title></rect><rect x="202" y="239" width="9" height="9" rx="2" fill="#edf4fb"><title>2025-10-30: 0 contributions</title></rect><rect x="202" y="251" width="9" height="9" rx="2" fill="#edf4fb"><title>2025-10-31: 0 contributions</title></rect><rect x="202" y="263" width="9" height="9" rx="2" fill="#edf4fb"><title>2025-11-01: 0 contributions</title></rect><rect x="214" y="191" width="9" height="9" rx="2" fill="#edf4fb"><title>2025-11-02: 0 contributions</title></rect><rect x="214" y="203" width="9" height="9" rx="2" fill="#edf4fb"><title>2025-11-03: 0 contributions</title></rect><rect x="214" y="215" width="9" height="9" rx="2" fill="#edf4fb"><title>2025-11-04: 0 contributions</title></rect><rect x="214" y="227" width="9" height="9" rx="2" fill="#edf4fb"><title>2025-11-05: 0 contributions</title></rect><rect x="214" y="239" width="9" height="9" rx="2" fill="#edf4fb"><title>2025-11-06: 0 contributions</title></rect><rect x="214" y="251" width="9" height="9" rx="2" fill="#edf4fb"><title>2025-11-07: 0 contributions</title></rect><rect x="214" y="263" width="9" height="9" rx="2" fill="#edf4fb"><title>2025-11-08: 0 contributions</title></rect><rect x="226" y="191" width="9" height="9" rx="2" fill="#edf4fb"><title>2025-11-09: 0 contributions</title></rect><rect x="226" y="203" width="9" height="9" rx="2" fill="#edf4fb"><title>2025-11-10: 0 contributions</title></rect><rect x="226" y="215" width="9" height="9" rx="2" fill="#edf4fb"><title>2025-11-11: 0 contributions</title></rect><rect x="226" y="227" width="9" height="9" rx="2" fill="#edf4fb"><title>2025-11-12: 0 contributions</title></rect><rect x="226" y="239" width="9" height="9" rx="2" fill="#edf4fb"><title>2025-11-13: 0 contributions</title></rect><rect x="226" y="251" width="9" height="9" rx="2" fill="#edf4fb"><title>2025-11-14: 0 contributions</title></rect><rect x="226" y="263" width="9" height="9" rx="2" fill="#edf4fb"><title>2025-11-15: 0 contributions</title></rect><rect x="238" y="191" width="9" height="9" rx="2" fill="#edf4fb"><title>2025-11-16: 0 contributions</title></rect><rect x="238" y="203" width="9" height="9" rx="2" fill="#edf4fb"><title>2025-11-17: 0 contributions</title></rect><rect x="238" y="215" width="9" height="9" rx="2" fill="#edf4fb"><title>2025-11-18: 0 contributions</title></rect><rect x="238" y="227" width="9" height="9" rx="2" fill="#edf4fb"><title>2025-11-19: 0 contributions</title></rect><rect x="238" y="239" width="9" height="9" rx="2" fill="#edf4fb"><title>2025-11-20: 0 contributions</title></rect><rect x="238" y="251" width="9" height="9" rx="2" fill="#edf4fb"><title>2025-11-21: 0 contributions</title></rect><rect x="238" y="263" width="9" height="9" rx="2" fill="#edf4fb"><title>2025-11-22: 0 contributions</title></rect><rect x="250" y="191" width="9" height="9" rx="2" fill="#edf4fb"><title>2025-11-23: 0 contributions</title></rect><rect x="250" y="203" width="9" height="9" rx="2" fill="#edf4fb"><title>2025-11-24: 0 contributions</title></rect><rect x="250" y="215" width="9" height="9" rx="2" fill="#edf4fb"><title>2025-11-25: 0 contributions</title></rect><rect x="250" y="227" width="9" height="9" rx="2" fill="#edf4fb"><title>2025-11-26: 0 contributions</title></rect><rect x="250" y="239" width="9" height="9" rx="2" fill="#edf4fb"><title>2025-11-27: 0 contributions</title></rect><rect x="250" y="251" width="9" height="9" rx="2" fill="#edf4fb"><title>2025-11-28: 0 contributions</title></rect><rect x="250" y="263" width="9" height="9" rx="2" fill="#edf4fb"><title>2025-11-29: 0 contributions</title></rect><rect x="262" y="191" width="9" height="9" rx="2" fill="#edf4fb"><title>2025-11-30: 0 contributions</title></rect><rect x="262" y="203" width="9" height="9" rx="2" fill="#edf4fb"><title>2025-12-01: 0 contributions</title></rect><rect x="262" y="215" width="9" height="9" rx="2" fill="#edf4fb"><title>2025-12-02: 0 contributions</title></rect><rect x="262" y="227" width="9" height="9" rx="2" fill="#edf4fb"><title>2025-12-03: 0 contributions</title></rect><rect x="262" y="239" width="9" height="9" rx="2" fill="#edf4fb"><title>2025-12-04: 0 contributions</title></rect><rect x="262" y="251" width="9" height="9" rx="2" fill="#edf4fb"><title>2025-12-05: 0 contributions</title></rect><rect x="262" y="263" width="9" height="9" rx="2" fill="#edf4fb"><title>2025-12-06: 0 contributions</title></rect><rect x="274" y="191" width="9" height="9" rx="2" fill="#edf4fb"><title>2025-12-07: 0 contributions</title></rect><rect x="274" y="203" width="9" height="9" rx="2" fill="#edf4fb"><title>2025-12-08: 0 contributions</title></rect><rect x="274" y="215" width="9" height="9" rx="2" fill="#edf4fb"><title>2025-12-09: 0 contributions</title></rect><rect x="274" y="227" width="9" height="9" rx="2" fill="#edf4fb"><title>2025-12-10: 0 contributions</title></rect><rect x="274" y="239" width="9" height="9" rx="2" fill="#edf4fb"><title>2025-12-11: 0 contributions</title></rect><rect x="274" y="251" width="9" height="9" rx="2" fill="#edf4fb"><title>2025-12-12: 0 contributions</title></rect><rect x="274" y="263" width="9" height="9" rx="2" fill="#edf4fb"><title>2025-12-13: 0 contributions</title></rect><rect x="286" y="191" width="9" height="9" rx="2" fill="#edf4fb"><title>2025-12-14: 0 contributions</title></rect><rect x="286" y="203" width="9" height="9" rx="2" fill="#edf4fb"><title>2025-12-15: 0 contributions</title></rect><rect x="286" y="215" width="9" height="9" rx="2" fill="#edf4fb"><title>2025-12-16: 0 contributions</title></rect><rect x="286" y="227" width="9" height="9" rx="2" fill="#edf4fb"><title>2025-12-17: 0 contributions</title></rect><rect x="286" y="239" width="9" height="9" rx="2" fill="#edf4fb"><title>2025-12-18: 0 contributions</title></rect><rect x="286" y="251" width="9" height="9" rx="2" fill="#edf4fb"><title>2025-12-19: 0 contributions</title></rect><rect x="286" y="263" width="9" height="9" rx="2" fill="#edf4fb"><title>2025-12-20: 0 contributions</title></rect><rect x="298" y="191" width="9" height="9" rx="2" fill="#edf4fb"><title>2025-12-21: 0 contributions</title></rect><rect x="298" y="203" width="9" height="9" rx="2" fill="#edf4fb"><title>2025-12-22: 0 contributions</title></rect><rect x="298" y="215" width="9" height="9" rx="2" fill="#edf4fb"><title>2025-12-23: 0 contributions</title></rect><rect x="298" y="227" width="9" height="9" rx="2" fill="#edf4fb"><title>2025-12-24: 0 contributions</title></rect><rect x="298" y="239" width="9" height="9" rx="2" fill="#edf4fb"><title>2025-12-25: 0 contributions</title></rect><rect x="298" y="251" width="9" height="9" rx="2" fill="#edf4fb"><title>2025-12-26: 0 contributions</title></rect><rect x="298" y="263" width="9" height="9" rx="2" fill="#edf4fb"><title>2025-12-27: 0 contributions</title></rect><rect x="310" y="191" width="9" height="9" rx="2" fill="#edf4fb"><title>2025-12-28: 0 contributions</title></rect><rect x="310" y="203" width="9" height="9" rx="2" fill="#edf4fb"><title>2025-12-29: 0 contributions</title></rect><rect x="310" y="215" width="9" height="9" rx="2" fill="#edf4fb"><title>2025-12-30: 0 contributions</title></rect><rect x="310" y="227" width="9" height="9" rx="2" fill="#edf4fb"><title>2025-12-31: 0 contributions</title></rect><rect x="310" y="239" width="9" height="9" rx="2" fill="#edf4fb"><title>2026-01-01: 0 contributions</title></rect><rect x="310" y="251" width="9" height="9" rx="2" fill="#edf4fb"><title>2026-01-02: 0 contributions</title></rect><rect x="310" y="263" width="9" height="9" rx="2" fill="#edf4fb"><title>2026-01-03: 0 contributions</title></rect><rect x="322" y="191" width="9" height="9" rx="2" fill="#edf4fb"><title>2026-01-04: 0 contributions</title></rect><rect x="322" y="203" width="9" height="9" rx="2" fill="#edf4fb"><title>2026-01-05: 0 contributions</title></rect><rect x="322" y="215" width="9" height="9" rx="2" fill="#edf4fb"><title>2026-01-06: 0 contributions</title></rect><rect x="322" y="227" width="9" height="9" rx="2" fill="#edf4fb"><title>2026-01-07: 0 contributions</title></rect><rect x="322" y="239" width="9" height="9" rx="2" fill="#edf4fb"><title>2026-01-08: 0 contributions</title></rect><rect x="322" y="251" width="9" height="9" rx="2" fill="#edf4fb"><title>2026-01-09: 0 contributions</title></rect><rect x="322" y="263" width="9" height="9" rx="2" fill="#edf4fb"><title>2026-01-10: 0 contributions</title></rect><rect x="334" y="191" width="9" height="9" rx="2" fill="#edf4fb"><title>2026-01-11: 0 contributions</title></rect><rect x="334" y="203" width="9" height="9" rx="2" fill="#edf4fb"><title>2026-01-12: 0 contributions</title></rect><rect x="334" y="215" width="9" height="9" rx="2" fill="#edf4fb"><title>2026-01-13: 0 contributions</title></rect><rect x="334" y="227" width="9" height="9" rx="2" fill="#edf4fb"><title>2026-01-14: 0 contributions</title></rect><rect x="334" y="239" width="9" height="9" rx="2" fill="#edf4fb"><title>2026-01-15: 0 contributions</title></rect><rect x="334" y="251" width="9" height="9" rx="2" fill="#edf4fb"><title>2026-01-16: 0 contributions</title></rect><rect x="334" y="263" width="9" height="9" rx="2" fill="#edf4fb"><title>2026-01-17: 0 contributions</title></rect><rect x="346" y="191" width="9" height="9" rx="2" fill="#edf4fb"><title>2026-01-18: 0 contributions</title></rect><rect x="346" y="203" width="9" height="9" rx="2" fill="#edf4fb"><title>2026-01-19: 0 contributions</title></rect><rect x="346" y="215" width="9" height="9" rx="2" fill="#edf4fb"><title>2026-01-20: 0 contributions</title></rect><rect x="346" y="227" width="9" height="9" rx="2" fill="#edf4fb"><title>2026-01-21: 0 contributions</title></rect><rect x="346" y="239" width="9" height="9" rx="2" fill="#edf4fb"><title>2026-01-22: 0 contributions</title></rect><rect x="346" y="251" width="9" height="9" rx="2" fill="#edf4fb"><title>2026-01-23: 0 contributions</title></rect><rect x="346" y="263" width="9" height="9" rx="2" fill="#edf4fb"><title>2026-01-24: 0 contributions</title></rect><rect x="358" y="191" width="9" height="9" rx="2" fill="#edf4fb"><title>2026-01-25: 0 contributions</title></rect><rect x="358" y="203" width="9" height="9" rx="2" fill="#edf4fb"><title>2026-01-26: 0 contributions</title></rect><rect x="358" y="215" width="9" height="9" rx="2" fill="#edf4fb"><title>2026-01-27: 0 contributions</title></rect><rect x="358" y="227" width="9" height="9" rx="2" fill="#edf4fb"><title>2026-01-28: 0 contributions</title></rect><rect x="358" y="239" width="9" height="9" rx="2" fill="#edf4fb"><title>2026-01-29: 0 contributions</title></rect><rect x="358" y="251" width="9" height="9" rx="2" fill="#edf4fb"><title>2026-01-30: 0 contributions</title></rect><rect x="358" y="263" width="9" height="9" rx="2" fill="#edf4fb"><title>2026-01-31: 0 contributions</title></rect><rect x="370" y="191" width="9" height="9" rx="2" fill="#edf4fb"><title>2026-02-01: 0 contributions</title></rect><rect x="370" y="203" width="9" height="9" rx="2" fill="#edf4fb"><title>2026-02-02: 0 contributions</title></rect><rect x="370" y="215" width="9" height="9" rx="2" fill="#edf4fb"><title>2026-02-03: 0 contributions</title></rect><rect x="370" y="227" width="9" height="9" rx="2" fill="#edf4fb"><title>2026-02-04: 0 contributions</title></rect><rect x="370" y="239" width="9" height="9" rx="2" fill="#edf4fb"><title>2026-02-05: 0 contributions</title></rect><rect x="370" y="251" width="9" height="9" rx="2" fill="#edf4fb"><title>2026-02-06: 0 contributions</title></rect><rect x="370" y="263" width="9" height="9" rx="2" fill="#edf4fb"><title>2026-02-07: 0 contributions</title></rect><rect x="382" y="191" width="9" height="9" rx="2" fill="#edf4fb"><title>2026-02-08: 0 contributions</title></rect><rect x="382" y="203" width="9" height="9" rx="2" fill="#edf4fb"><title>2026-02-09: 0 contributions</title></rect><rect x="382" y="215" width="9" height="9" rx="2" fill="#edf4fb"><title>2026-02-10: 0 contributions</title></rect><rect x="382" y="227" width="9" height="9" rx="2" fill="#edf4fb"><title>2026-02-11: 0 contributions</title></rect><rect x="382" y="239" width="9" height="9" rx="2" fill="#edf4fb"><title>2026-02-12: 0 contributions</title></rect><rect x="382" y="251" width="9" height="9" rx="2" fill="#edf4fb"><title>2026-02-13: 0 contributions</title></rect><rect x="382" y="263" width="9" height="9" rx="2" fill="#edf4fb"><title>2026-02-14: 0 contributions</title></rect><rect x="394" y="191" width="9" height="9" rx="2" fill="#edf4fb"><title>2026-02-15: 0 contributions</title></rect><rect x="394" y="203" width="9" height="9" rx="2" fill="#edf4fb"><title>2026-02-16: 0 contributions</title></rect><rect x="394" y="215" width="9" height="9" rx="2" fill="#edf4fb"><title>2026-02-17: 0 contributions</title></rect><rect x="394" y="227" width="9" height="9" rx="2" fill="#edf4fb"><title>2026-02-18: 0 contributions</title></rect><rect x="394" y="239" width="9" height="9" rx="2" fill="#edf4fb"><title>2026-02-19: 0 contributions</title></rect><rect x="394" y="251" width="9" height="9" rx="2" fill="#edf4fb"><title>2026-02-20: 0 contributions</title></rect><rect x="394" y="263" width="9" height="9" rx="2" fill="#edf4fb"><title>2026-02-21: 0 contributions</title></rect><rect x="406" y="191" width="9" height="9" rx="2" fill="#edf4fb"><title>2026-02-22: 0 contributions</title></rect><rect x="406" y="203" width="9" height="9" rx="2" fill="#edf4fb"><title>2026-02-23: 0 contributions</title></rect><rect x="406" y="215" width="9" height="9" rx="2" fill="#edf4fb"><title>2026-02-24: 0 contributions</title></rect><rect x="406" y="227" width="9" height="9" rx="2" fill="#edf4fb"><title>2026-02-25: 0 contributions</title></rect><rect x="406" y="239" width="9" height="9" rx="2" fill="#edf4fb"><title>2026-02-26: 0 contributions</title></rect><rect x="406" y="251" width="9" height="9" rx="2" fill="#edf4fb"><title>2026-02-27: 0 contributions</title></rect><rect x="406" y="263" width="9" height="9" rx="2" fill="#edf4fb"><title>2026-02-28: 0 contributions</title></rect><rect x="418" y="191" width="9" height="9" rx="2" fill="#edf4fb"><title>2026-03-01: 0 contributions</title></rect><rect x="418" y="203" width="9" height="9" rx="2" fill="#edf4fb"><title>2026-03-02: 0 contributions</title></rect><rect x="418" y="215" width="9" height="9" rx="2" fill="#edf4fb"><title>2026-03-03: 0 contributions</title></rect><rect x="418" y="227" width="9" height="9" rx="2" fill="#edf4fb"><title>2026-03-04: 0 contributions</title></rect><rect x="418" y="239" width="9" height="9" rx="2" fill="#edf4fb"><title>2026-03-05: 0 contributions</title></rect><rect x="418" y="251" width="9" height="9" rx="2" fill="#edf4fb"><title>2026-03-06: 0 contributions</title></rect><rect x="418" y="263" width="9" height="9" rx="2" fill="#edf4fb"><title>2026-03-07: 0 contributions</title></rect><rect x="430" y="191" width="9" height="9" rx="2" fill="#edf4fb"><title>2026-03-08: 0 contributions</title></rect><rect x="430" y="203" width="9" height="9" rx="2" fill="#edf4fb"><title>2026-03-09: 0 contributions</title></rect><rect x="430" y="215" width="9" height="9" rx="2" fill="#edf4fb"><title>2026-03-10: 0 contributions</title></rect><rect x="430" y="227" width="9" height="9" rx="2" fill="#edf4fb"><title>2026-03-11: 0 contributions</title></rect><rect x="430" y="239" width="9" height="9" rx="2" fill="#edf4fb"><title>2026-03-12: 0 contributions</title></rect><rect x="430" y="251" width="9" height="9" rx="2" fill="#edf4fb"><title>2026-03-13: 0 contributions</title></rect><rect x="430" y="263" width="9" height="9" rx="2" fill="#edf4fb"><title>2026-03-14: 0 contributions</title></rect><rect x="442" y="191" width="9" height="9" rx="2" fill="#edf4fb"><title>2026-03-15: 0 contributions</title></rect><rect x="442" y="203" width="9" height="9" rx="2" fill="#edf4fb"><title>2026-03-16: 0 contributions</title></rect><rect x="442" y="215" width="9" height="9" rx="2" fill="#edf4fb"><title>2026-03-17: 0 contributions</title></rect><rect x="442" y="227" width="9" height="9" rx="2" fill="#edf4fb"><title>2026-03-18: 0 contributions</title></rect><rect x="442" y="239" width="9" height="9" rx="2" fill="#edf4fb"><title>2026-03-19: 0 contributions</title></rect><rect x="442" y="251" width="9" height="9" rx="2" fill="#edf4fb"><title>2026-03-20: 0 contributions</title></rect><rect x="442" y="263" width="9" height="9" rx="2" fill="#edf4fb"><title>2026-03-21: 0 contributions</title></rect><rect x="454" y="191" width="9" height="9" rx="2" fill="#edf4fb"><title>2026-03-22: 0 contributions</title></rect><rect x="454" y="203" width="9" height="9" rx="2" fill="#edf4fb"><title>2026-03-23: 0 contributions</title></rect><rect x="454" y="215" width="9" height="9" rx="2" fill="#edf4fb"><title>2026-03-24: 0 contributions</title></rect><rect x="454" y="227" width="9" height="9" rx="2" fill="#edf4fb"><title>2026-03-25: 0 contributions</title></rect><rect x="454" y="239" width="9" height="9" rx="2" fill="#edf4fb"><title>2026-03-26: 0 contributions</title></rect><rect x="454" y="251" width="9" height="9" rx="2" fill="#edf4fb"><title>2026-03-27: 0 contributions</title></rect><rect x="454" y="263" width="9" height="9" rx="2" fill="#edf4fb"><title>2026-03-28: 0 contributions</title></rect><rect x="466" y="191" width="9" height="9" rx="2" fill="#edf4fb"><title>2026-03-29: 0 contributions</title></rect><rect x="466" y="203" width="9" height="9" rx="2" fill="#edf4fb"><title>2026-03-30: 0 contributions</title></rect><rect x="466" y="215" width="9" height="9" rx="2" fill="#93c5fd"><title>2026-03-31: 4 contributions</title></rect><rect x="466" y="227" width="9" height="9" rx="2" fill="#60a5fa"><title>2026-04-01: 8 contributions</title></rect><rect x="466" y="239" width="9" height="9" rx="2" fill="#2563eb"><title>2026-04-02: 10 contributions</title></rect><rect x="466" y="251" width="9" height="9" rx="2" fill="#edf4fb"><title>2026-04-03: 0 contributions</title></rect><rect x="466" y="263" width="9" height="9" rx="2" fill="#edf4fb"><title>2026-04-04: 0 contributions</title></rect><rect x="478" y="191" width="9" height="9" rx="2" fill="#edf4fb"><title>2026-04-05: 0 contributions</title></rect><rect x="478" y="203" width="9" height="9" rx="2" fill="#edf4fb"><title>2026-04-06: 0 contributions</title></rect><rect x="478" y="215" width="9" height="9" rx="2" fill="#dbeafe"><title>2026-04-07: 1 contributions</title></rect><rect x="478" y="227" width="9" height="9" rx="2" fill="#edf4fb"><title>2026-04-08: 0 contributions</title></rect><rect x="478" y="239" width="9" height="9" rx="2" fill="#edf4fb"><title>2026-04-09: 0 contributions</title></rect><rect x="478" y="251" width="9" height="9" rx="2" fill="#edf4fb"><title>2026-04-10: 0 contributions</title></rect><rect x="478" y="263" width="9" height="9" rx="2" fill="#edf4fb"><title>2026-04-11: 0 contributions</title></rect><rect x="490" y="191" width="9" height="9" rx="2" fill="#edf4fb"><title>2026-04-12: 0 contributions</title></rect><rect x="490" y="203" width="9" height="9" rx="2" fill="#edf4fb"><title>2026-04-13: 0 contributions</title></rect><rect x="490" y="215" width="9" height="9" rx="2" fill="#edf4fb"><title>2026-04-14: 0 contributions</title></rect><rect x="490" y="227" width="9" height="9" rx="2" fill="#dbeafe"><title>2026-04-15: 3 contributions</title></rect><rect x="490" y="239" width="9" height="9" rx="2" fill="#edf4fb"><title>2026-04-16: 0 contributions</title></rect><rect x="490" y="251" width="9" height="9" rx="2" fill="#edf4fb"><title>2026-04-17: 0 contributions</title></rect><rect x="490" y="263" width="9" height="9" rx="2" fill="#edf4fb"><title>2026-04-18: 0 contributions</title></rect><rect x="502" y="191" width="9" height="9" rx="2" fill="#edf4fb"><title>2026-04-19: 0 contributions</title></rect><rect x="502" y="203" width="9" height="9" rx="2" fill="#edf4fb"><title>2026-04-20: 0 contributions</title></rect><rect x="502" y="215" width="9" height="9" rx="2" fill="#edf4fb"><title>2026-04-21: 0 contributions</title></rect><rect x="502" y="227" width="9" height="9" rx="2" fill="#edf4fb"><title>2026-04-22: 0 contributions</title></rect><rect x="502" y="239" width="9" height="9" rx="2" fill="#edf4fb"><title>2026-04-23: 0 contributions</title></rect><rect x="502" y="251" width="9" height="9" rx="2" fill="#edf4fb"><title>2026-04-24: 0 contributions</title></rect><rect x="502" y="263" width="9" height="9" rx="2" fill="#edf4fb"><title>2026-04-25: 0 contributions</title></rect><rect x="514" y="191" width="9" height="9" rx="2" fill="#edf4fb"><title>2026-04-26: 0 contributions</title></rect><rect x="514" y="203" width="9" height="9" rx="2" fill="#edf4fb"><title>2026-04-27: 0 contributions</title></rect><rect x="514" y="215" width="9" height="9" rx="2" fill="#edf4fb"><title>2026-04-28: 0 contributions</title></rect><rect x="514" y="227" width="9" height="9" rx="2" fill="#edf4fb"><title>2026-04-29: 0 contributions</title></rect><rect x="514" y="239" width="9" height="9" rx="2" fill="#edf4fb"><title>2026-04-30: 0 contributions</title></rect><rect x="514" y="251" width="9" height="9" rx="2" fill="#edf4fb"><title>2026-05-01: 0 contributions</title></rect><rect x="514" y="263" width="9" height="9" rx="2" fill="#edf4fb"><title>2026-05-02: 0 contributions</title></rect><rect x="526" y="191" width="9" height="9" rx="2" fill="#dbeafe"><title>2026-05-03: 1 contributions</title></rect><rect x="526" y="203" width="9" height="9" rx="2" fill="#edf4fb"><title>2026-05-04: 0 contributions</title></rect><rect x="526" y="215" width="9" height="9" rx="2" fill="#edf4fb"><title>2026-05-05: 0 contributions</title></rect><rect x="526" y="227" width="9" height="9" rx="2" fill="#edf4fb"><title>2026-05-06: 0 contributions</title></rect><rect x="526" y="239" width="9" height="9" rx="2" fill="#edf4fb"><title>2026-05-07: 0 contributions</title></rect><rect x="526" y="251" width="9" height="9" rx="2" fill="#edf4fb"><title>2026-05-08: 0 contributions</title></rect><rect x="526" y="263" width="9" height="9" rx="2" fill="#edf4fb"><title>2026-05-09: 0 contributions</title></rect><rect x="538" y="191" width="9" height="9" rx="2" fill="#edf4fb"><title>2026-05-10: 0 contributions</title></rect><rect x="538" y="203" width="9" height="9" rx="2" fill="#edf4fb"><title>2026-05-11: 0 contributions</title></rect><rect x="538" y="215" width="9" height="9" rx="2" fill="#93c5fd"><title>2026-05-12: 5 contributions</title></rect><rect x="538" y="227" width="9" height="9" rx="2" fill="#edf4fb"><title>2026-05-13: 0 contributions</title></rect><rect x="538" y="239" width="9" height="9" rx="2" fill="#93c5fd"><title>2026-05-14: 4 contributions</title></rect><rect x="538" y="251" width="9" height="9" rx="2" fill="#edf4fb"><title>2026-05-15: 0 contributions</title></rect><rect x="538" y="263" width="9" height="9" rx="2" fill="#edf4fb"><title>2026-05-16: 0 contributions</title></rect><rect x="550" y="191" width="9" height="9" rx="2" fill="#edf4fb"><title>2026-05-17: 0 contributions</title></rect><rect x="550" y="203" width="9" height="9" rx="2" fill="#edf4fb"><title>2026-05-18: 0 contributions</title></rect><rect x="550" y="215" width="9" height="9" rx="2" fill="#60a5fa"><title>2026-05-19: 7 contributions</title></rect><rect x="550" y="227" width="9" height="9" rx="2" fill="#edf4fb"><title>2026-05-20: 0 contributions</title></rect><rect x="550" y="239" width="9" height="9" rx="2" fill="#93c5fd"><title>2026-05-21: 5 contributions</title></rect><rect x="550" y="251" width="9" height="9" rx="2" fill="#93c5fd"><title>2026-05-22: 5 contributions</title></rect><rect x="550" y="263" width="9" height="9" rx="2" fill="#edf4fb"><title>2026-05-23: 0 contributions</title></rect><rect x="562" y="191" width="9" height="9" rx="2" fill="#edf4fb"><title>2026-05-24: 0 contributions</title></rect><rect x="562" y="203" width="9" height="9" rx="2" fill="#edf4fb"><title>2026-05-25: 0 contributions</title></rect><rect x="562" y="215" width="9" height="9" rx="2" fill="#edf4fb"><title>2026-05-26: 0 contributions</title></rect><rect x="562" y="227" width="9" height="9" rx="2" fill="#edf4fb"><title>2026-05-27: 0 contributions</title></rect><rect x="562" y="239" width="9" height="9" rx="2" fill="#2563eb"><title>2026-05-28: 21 contributions</title></rect><rect x="562" y="251" width="9" height="9" rx="2" fill="#edf4fb"><title>2026-05-29: 0 contributions</title></rect><rect x="562" y="263" width="9" height="9" rx="2" fill="#edf4fb"><title>2026-05-30: 0 contributions</title></rect><rect x="574" y="191" width="9" height="9" rx="2" fill="#edf4fb"><title>2026-05-31: 0 contributions</title></rect><rect x="574" y="203" width="9" height="9" rx="2" fill="#edf4fb"><title>2026-06-01: 0 contributions</title></rect><rect x="574" y="215" width="9" height="9" rx="2" fill="#edf4fb"><title>2026-06-02: 0 contributions</title></rect><rect x="574" y="227" width="9" height="9" rx="2" fill="#edf4fb"><title>2026-06-03: 0 contributions</title></rect><rect x="574" y="239" width="9" height="9" rx="2" fill="#edf4fb"><title>2026-06-04: 0 contributions</title></rect><rect x="574" y="251" width="9" height="9" rx="2" fill="#edf4fb"><title>2026-06-05: 0 contributions</title></rect><rect x="574" y="263" width="9" height="9" rx="2" fill="#edf4fb"><title>2026-06-06: 0 contributions</title></rect><rect x="586" y="191" width="9" height="9" rx="2" fill="#edf4fb"><title>2026-06-07: 0 contributions</title></rect><rect x="586" y="203" width="9" height="9" rx="2" fill="#edf4fb"><title>2026-06-08: 0 contributions</title></rect><rect x="586" y="215" width="9" height="9" rx="2" fill="#edf4fb"><title>2026-06-09: 0 contributions</title></rect><rect x="586" y="227" width="9" height="9" rx="2" fill="#edf4fb"><title>2026-06-10: 0 contributions</title></rect><rect x="586" y="239" width="9" height="9" rx="2" fill="#edf4fb"><title>2026-06-11: 0 contributions</title></rect><rect x="586" y="251" width="9" height="9" rx="2" fill="#edf4fb"><title>2026-06-12: 0 contributions</title></rect><rect x="586" y="263" width="9" height="9" rx="2" fill="#edf4fb"><title>2026-06-13: 0 contributions</title></rect><rect x="598" y="191" width="9" height="9" rx="2" fill="#edf4fb"><title>2026-06-14: 0 contributions</title></rect><rect x="598" y="203" width="9" height="9" rx="2" fill="#edf4fb"><title>2026-06-15: 0 contributions</title></rect><rect x="598" y="215" width="9" height="9" rx="2" fill="#93c5fd"><title>2026-06-16: 4 contributions</title></rect><rect x="598" y="227" width="9" height="9" rx="2" fill="#edf4fb"><title>2026-06-17: 0 contributions</title></rect><rect x="598" y="239" width="9" height="9" rx="2" fill="#edf4fb"><title>2026-06-18: 0 contributions</title></rect><rect x="598" y="251" width="9" height="9" rx="2" fill="#dbeafe"><title>2026-06-19: 3 contributions</title></rect><rect x="598" y="263" width="9" height="9" rx="2" fill="#93c5fd"><title>2026-06-20: 6 contributions</title></rect><rect x="610" y="191" width="9" height="9" rx="2" fill="#60a5fa"><title>2026-06-21: 7 contributions</title></rect><rect x="610" y="203" width="9" height="9" rx="2" fill="#edf4fb"><title>2026-06-22: 0 contributions</title></rect><rect x="610" y="215" width="9" height="9" rx="2" fill="#2563eb"><title>2026-06-23: 10 contributions</title></rect><rect x="610" y="227" width="9" height="9" rx="2" fill="#93c5fd"><title>2026-06-24: 6 contributions</title></rect><rect x="610" y="239" width="9" height="9" rx="2" fill="#dbeafe"><title>2026-06-25: 3 contributions</title></rect><rect x="610" y="251" width="9" height="9" rx="2" fill="#dbeafe"><title>2026-06-26: 2 contributions</title></rect><rect x="610" y="263" width="9" height="9" rx="2" fill="#edf4fb"><title>2026-06-27: 0 contributions</title></rect><rect x="622" y="191" width="9" height="9" rx="2" fill="#edf4fb"><title>2026-06-28: 0 contributions</title></rect><rect x="622" y="203" width="9" height="9" rx="2" fill="#93c5fd"><title>2026-06-29: 6 contributions</title></rect><rect x="622" y="215" width="9" height="9" rx="2" fill="#60a5fa"><title>2026-06-30: 9 contributions</title></rect><rect x="622" y="227" width="9" height="9" rx="2" fill="#2563eb"><title>2026-07-01: 14 contributions</title></rect><rect x="622" y="239" width="9" height="9" rx="2" fill="#edf4fb"><title>2026-07-02: 0 contributions</title></rect><rect x="622" y="251" width="9" height="9" rx="2" fill="#dbeafe"><title>2026-07-03: 3 contributions</title></rect><rect x="622" y="263" width="9" height="9" rx="2" fill="#edf4fb"><title>2026-07-04: 0 contributions</title></rect><rect x="634" y="191" width="9" height="9" rx="2" fill="#dbeafe"><title>2026-07-05: 2 contributions</title></rect><rect x="634" y="203" width="9" height="9" rx="2" fill="#dbeafe"><title>2026-07-06: 1 contributions</title></rect><rect x="634" y="215" width="9" height="9" rx="2" fill="#dbeafe"><title>2026-07-07: 2 contributions</title></rect><rect x="634" y="227" width="9" height="9" rx="2" fill="#dbeafe"><title>2026-07-08: 2 contributions</title></rect><rect x="634" y="239" width="9" height="9" rx="2" fill="#dbeafe"><title>2026-07-09: 2 contributions</title></rect><rect x="634" y="251" width="9" height="9" rx="2" fill="#2563eb"><title>2026-07-10: 20 contributions</title></rect><rect x="634" y="263" width="9" height="9" rx="2" fill="#2563eb"><title>2026-07-11: 14 contributions</title></rect><rect x="646" y="191" width="9" height="9" rx="2" fill="#93c5fd"><title>2026-07-12: 6 contributions</title></rect><rect x="646" y="203" width="9" height="9" rx="2" fill="#2563eb"><title>2026-07-13: 12 contributions</title></rect><rect x="646" y="215" width="9" height="9" rx="2" fill="#2563eb"><title>2026-07-14: 21 contributions</title></rect><rect x="646" y="227" width="9" height="9" rx="2" fill="#60a5fa"><title>2026-07-15: 8 contributions</title></rect><rect x="646" y="239" width="9" height="9" rx="2" fill="#93c5fd"><title>2026-07-16: 6 contributions</title></rect><rect x="646" y="251" width="9" height="9" rx="2" fill="#60a5fa"><title>2026-07-17: 7 contributions</title></rect><rect x="646" y="263" width="9" height="9" rx="2" fill="#edf4fb"><title>2026-07-18: 0 contributions</title></rect><rect x="658" y="191" width="9" height="9" rx="2" fill="#60a5fa"><title>2026-07-19: 7 contributions</title></rect><rect x="658" y="203" width="9" height="9" rx="2" fill="#60a5fa"><title>2026-07-20: 8 contributions</title></rect><rect x="658" y="215" width="9" height="9" rx="2" fill="#2563eb"><title>2026-07-21: 13 contributions</title></rect><rect x="658" y="227" width="9" height="9" rx="2" fill="#93c5fd"><title>2026-07-22: 6 contributions</title></rect><rect x="658" y="239" width="9" height="9" rx="2" fill="#edf4fb"><title>2026-07-23: 0 contributions</title></rect><rect x="658" y="251" width="9" height="9" rx="2" fill="#edf4fb"><title>2026-07-24: 0 contributions</title></rect><text x="46" y="187" fill="#64748b" font-size="9" font-weight="500">7月</text><text x="118" y="187" fill="#64748b" font-size="9" font-weight="500">9月</text><text x="166" y="187" fill="#64748b" font-size="9" font-weight="500">10月</text><text x="214" y="187" fill="#64748b" font-size="9" font-weight="500">11月</text><text x="274" y="187" fill="#64748b" font-size="9" font-weight="500">12月</text><text x="322" y="187" fill="#64748b" font-size="9" font-weight="500">1月</text><text x="370" y="187" fill="#64748b" font-size="9" font-weight="500">2月</text><text x="418" y="187" fill="#64748b" font-size="9" font-weight="500">3月</text><text x="478" y="187" fill="#64748b" font-size="9" font-weight="500">4月</text><text x="526" y="187" fill="#64748b" font-size="9" font-weight="500">5月</text><text x="586" y="187" fill="#64748b" font-size="9" font-weight="500">6月</text><text x="634" y="187" fill="#64748b" font-size="9" font-weight="500">7月</text><text x="708" y="171" fill="#64748b" font-size="10" font-weight="600">仓库语言分布</text><text x="708" y="198" fill="#172033" font-size="11" font-weight="600">Python</text><text x="895" y="198" fill="#64748b" font-size="10" font-weight="600">33%</text><rect x="708" y="205" width="204" height="5" rx="2.5" fill="#eef6ff"/><rect x="708" y="205" width="68" height="5" rx="2.5" fill="#2563eb"/><text x="708" y="227" fill="#172033" font-size="11" font-weight="600">C</text><text x="895" y="227" fill="#64748b" font-size="10" font-weight="600">25%</text><rect x="708" y="234" width="204" height="5" rx="2.5" fill="#eef6ff"/><rect x="708" y="234" width="51" height="5" rx="2.5" fill="#0891b2"/><text x="708" y="256" fill="#172033" font-size="11" font-weight="600">C++</text><text x="895" y="256" fill="#64748b" font-size="10" font-weight="600">8%</text><rect x="708" y="263" width="204" height="5" rx="2.5" fill="#eef6ff"/><rect x="708" y="263" width="17" height="5" rx="2.5" fill="#4f46e5"/><text x="708" y="285" fill="#172033" font-size="11" font-weight="600">TypeScript</text><text x="895" y="285" fill="#64748b" font-size="10" font-weight="600">8%</text><rect x="708" y="292" width="204" height="5" rx="2.5" fill="#eef6ff"/><rect x="708" y="292" width="17" height="5" rx="2.5" fill="#64748b"/></svg>